<svg width="763" height="913" viewBox="0 0 763 913" fill="none" xmlns="http://www.w3.org/2000/svg">
<path d="M2.5 167.5C9 111 32.4988 71.4998 75.4988 35.5C118.499 -0.499817 147.498 -1.37408e-06 147.498 -1.37408e-06H385.962H708.962C730.538 2.72657 762.463 12.0002 762.463 46.5002V913C762.463 913 696.463 837.5 673.963 810.5C651.462 783.5 603.463 749.5 552.962 754.5C502.461 759.5 482.463 809 458.962 827.5C435.461 846 377.463 875.5 318.962 870C260.461 864.5 199.963 849 158.462 800.5C116.961 752 88.9626 688.5 98.4618 605C107.961 521.5 144.463 457.5 127.462 416C110.461 374.5 90.7705 365.958 55.9618 340C9.64496 289.128 -4 224 2.5 167.5Z" fill="#96a2d0" fill-opacity="0.16"/>
</svg>